<svg xmlns="http://www.w3.org/2000/svg" version="1.1" width="96" height="96" viewBox="0 0 25.399999 25.400001">
  <path d="M 24.70269,21.335205 17.723643,14.356158 C 18.56105,12.938918 19.05,11.290696 19.05,9.5249997 19.05,4.2644216 14.785579,0 9.5249998,0 4.2644217,0 0,4.2644216 0,9.5249997 0,14.785578 4.2644217,19.05 9.5249998,19.05 c 1.7656972,0 3.4139182,-0.488951 4.8311592,-1.326357 l 6.97865,6.97865 C 21.765816,25.133697 22.361127,25.4 23.018749,25.4 24.333993,25.4 25.4,24.333993 25.4,23.018749 c 0,-0.657622 -0.266699,-1.252933 -0.69731,-1.683544 z M 9.5249998,16.66875 c -3.9453343,0 -7.1437499,-3.198416 -7.1437499,-7.1437503 0,-3.9453343 3.1984156,-7.1437499 7.1437499,-7.1437499 3.9453342,0 7.1437502,3.1984156 7.1437502,7.1437499 0,3.9453343 -3.198416,7.1437503 -7.1437502,7.1437503 z" style="stroke-width:0.39687496" />
  <path d="m 14.929654,7.928297 c 0,-0.2798735 -0.226838,-0.5067111 -0.506711,-0.5067111 H 11.052808 L 10.009321,4.2326843 C 9.9456442,4.0254394 9.753094,3.8746084 9.5247362,3.8746084 c -0.22802,0 -0.4209081,0.1506621 -0.4844159,0.3580759 L 7.9966645,7.4215859 H 4.6265292 c -0.2798734,0 -0.5067111,0.2268376 -0.5067111,0.5067111 0,0.1689036 0.082763,0.3183834 0.2097784,0.4104359 v 0 l 2.7223897,1.9694161 -1.048723,3.204273 c -0.016552,0.04999 -0.025505,0.1032 -0.025505,0.1586 0,0.279874 0.2268376,0.506712 0.5067111,0.506712 0.1109697,0 0.2133253,-0.03598 0.2969327,-0.09627 h 1.688e-4 l 2.7431649,-1.98428 2.7433343,1.98428 h 1.69e-4 c 0.08327,0.06047 0.185794,0.09627 0.296763,0.09627 0.279874,0 0.506712,-0.226838 0.506712,-0.506712 0,-0.0554 -0.009,-0.108605 -0.02533,-0.158431 L 11.997661,10.308149 14.72005,8.3387329 v 0 c 0.126845,-0.092053 0.209608,-0.2415323 0.209608,-0.4104359 z" style="stroke-width:0.16890369;fill:#0086f8;fill-opacity:1" />
</svg>
